inDegrees=yes
name=ik_l_comf_01-000_00_orientations
DataType=double
version=3
OpenSimVersion=4.5
endheader
time	pelvis_tilt	pelvis_list	pelvis_rotation	pelvis_tx	pelvis_ty	pelvis_tz	hip_flexion_r	hip_adduction_r	hip_rotation_r	knee_angle_r	knee_angle_r_beta	ankle_angle_r	subtalar_angle_r	mtp_angle_r	hip_flexion_l	hip_adduction_l	hip_rotation_l	knee_angle_l	knee_angle_l_beta	ankle_angle_l	subtalar_angle_l	mtp_angle_l	lumbar_extension	lumbar_bending	lumbar_rotation	arm_flex_r	arm_add_r	arm_rot_r	elbow_flex_r	pro_sup_r	wrist_flex_r	wrist_dev_r	arm_flex_l	arm_add_l	arm_rot_l	elbow_flex_l	pro_sup_l	wrist_flex_l	wrist_dev_l
41.99999999999869	59.44972125532442	2.516796236508132	-14.62363029207053	0	0.9399999999999999	0	-29.99696313965074	29.99768637795402	-39.99776445238412	0.008692226101109314	0.0001517079647921471	-39.99599787367166	0	0	119.9677547863824	-49.99674189854476	39.99539702316975	91.62816156727042	1.599213106898197	-39.98132674043959	0	0	0	0	0	0	-14.114493380988	0	74.77445789922595	44.99998406505355	0	0	0	-14.114493380988	0	74.77445789922595	44.99998406505355	0	0
42.02499999999868	59.11788293422123	2.679639234981364	-14.32059976073335	0	0.9399999999999999	0	-29.99689746662596	29.99769036378842	-39.9977607859035	0.008438657294899796	0.0001472823542434395	-39.99598719500214	0	0	119.9575125069474	-49.99677691743683	39.99557243458061	92.8131194892255	1.619894524133903	-39.97991819779249	0	0	0	0	0	0	-14.11484819505892	0	74.77463395767776	44.9999840996234	0	0	0	-14.11484819505892	0	74.77463395767776	44.9999840996234	0	0
42.04999999999868	58.72258495136673	2.873007205723075	-14.10027476945157	0	0.9399999999999999	0	-29.99681905531375	29.99769136380442	-39.99775189770847	0.008149599243071353	0.0001422373395096328	-39.99597279547819	0	0	119.9312936399314	-49.99680423685776	39.99575126197659	93.75674601428372	1.636363913905321	-39.97798416887038	0	0	0	0	0	0	-14.11516309302378	0	74.77479012773973	44.99998413023933	0	0	0	-14.11516309302378	0	74.77479012773973	44.99998413023933	0	0
42.07499999999868	58.38700653742957	3.01714774991495	-13.95000190141128	0	0.9399999999999999	0	-29.99674747781955	29.99769083709187	-39.99774391750141	0.00789332043756975	0.0001377644305505517	-39.99595904497138	0	0	119.8501520592447	-49.99682686178112	39.99589048577253	94.63612068081375	1.651711897194898	-39.97570072916806	0	0	0	0	0	0	-14.11548032411449	0	74.77494738792218	44.99998416102428	0	0	0	-14.11548032411449	0	74.77494738792218	44.99998416102428	0	0
42.09999999999868	58.22905747576539	3.068427733565101	-13.86388520855698	0	0.9399999999999999	0	-29.99670546850999	29.99768632030749	-39.99774306357106	0.007704100236547876	0.0001344619150314344	-39.99594905873497	0	0	119.5769849753973	-49.99685402516381	39.9959620170781	95.4873996077954	1.666569517323572	-39.97310463409524	0	0	0	0	0	0	-14.11574141350077	0	74.77507649012102	44.9999841861443	0	0	0	-14.11574141350077	0	74.77507649012102	44.9999841861443	0	0
42.12499999999868	58.23567575788802	3.05446838032154	-13.85225157047064	0	0.9399999999999999	0	-29.99669174578198	29.99767692335159	-39.99774883330699	0.007560495237702683	0.0001319555349792632	-39.99594075105463	0	0	119.1650563057187	-49.99687703167154	39.99597940670762	96.46221948377789	1.683583333773349	-39.97006482500999	0	0	0	0	0	0	-14.1160627308642	0	74.77523561225966	44.99998421718963	0	0	0	-14.1160627308642	0	74.77523561225966	44.99998421718963	0	0
42.14999999999868	58.27039220103548	2.993011770036452	-13.87207805331219	0	0.9399999999999999	0	-29.99668762502634	29.99766646088574	-39.99775551305136	0.007449212451184148	0.0001300132839537208	-39.99593469348574	0	0	118.865187556484	-49.99689032945249	39.99598772692501	97.56287233231059	1.702793349901699	-39.9669102263867	0	0	0	0	0	0	-14.11461857354467	0	74.77467112050439	44.99998414844315	0	0	0	-14.11461857354467	0	74.77467112050439	44.99998414844315	0	0
42.17499999999868	58.32058048886798	2.910029322232298	-13.92623274310927	0	0.9399999999999999	0	-29.99668458862872	29.99765426660458	-39.99776236691575	0.007346765414378856	0.0001282252458525566	-39.99592829603674	0	0	118.6200495525837	-49.99689704682919	39.99599408224013	98.70833070178868	1.722785369893618	-39.96326874804269	0	0	0	0	0	0	-14.1132852465198	0	74.77415129121341	44.99998408583463	0	0	0	-14.1132852465198	0	74.77415129121341	44.99998408583463	0	0
42.19999999999867	58.41853285549265	2.847003412338299	-14.01075507454952	0	0.9399999999999999	0	-29.99668226332147	29.99763750905312	-39.99776769720452	0.007243225480190266	0.0001264181330936675	-39.99591994329327	0	0	118.2981697788329	-49.9968981363115	39.99599753870064	99.83817583088521	1.742504887433972	-39.9584665395075	0	0	0	0	0	0	-14.1121783247638	0	74.77373529077155	44.99998403985385	0	0	0	-14.1121783247638	0	74.77373529077155	44.99998403985385	0	0
42.22499999999867	58.56019429404743	2.791901345147661	-14.09910192327676	0	0.9399999999999999	0	-29.99667729139332	29.99761891907079	-39.99777125206635	0.007134977038724958	0.0001245288413799455	-39.99590944495842	0	0	117.9325695646714	-49.99689598669223	39.99599580837494	100.9671924741681	1.762209945169072	-39.95181312330818	0	0	0	0	0	0	-14.11102876389531	0	74.7733006110749	44.99998399088982	0	0	0	-14.11102876389531	0	74.7733006110749	44.99998399088982	0	0
